<svg width="281" height="142" viewBox="0 0 281 142" fill="none" xmlns="http://www.w3.org/2000/svg">
<g filter="url(#filter0_d)">
<path d="M215 19L265 7H277V25.6154H237L228 70.0855L237 109.385H260V86H244L277 70.0855V109.385V128H220L207 70.0855L215 19Z" fill="white"/>
<path d="M128.398 128H109L113.409 69.3333L109 7L152 30L196 7L191 69.3333L196 128H175.129V40L158.376 128H143.387L128.398 40V128Z" fill="white"/>
</g>
<g filter="url(#filter1_d)">
<path d="M56.8512 58.9951L56.3887 59.854C60.0883 61.9152 65.4175 66.4383 67.6196 68.4423C67.8839 75.1544 67.3774 81.0605 67.0911 83.1746C63.4444 92.1593 55.1776 97.4003 51.5 98.8978C44.3122 96.2024 37.9789 87.2925 35.7107 83.1746C35.2351 74.3484 35.5125 69.5874 35.7107 68.3102C38.7761 65.1919 44.299 61.3734 46.6773 59.854L46.1488 58.9951C41.4451 61.532 29.831 69.169 24.612 72.6704C25.5104 103.166 29.765 112.573 33.5306 120.831C20.9124 100.814 20.2517 85.1565 19.1947 70.9527C23.1586 67.7816 38.5515 60.955 45.6864 57.9381L45.0918 56.5508C36.3714 58.3477 20.1857 64.3904 13.1829 67.1871C14.4513 100.219 25.4708 118.717 36.1071 133.449C27.5188 123.341 21.1106 116.933 13.3811 102.069C9.05976 92.2362 6.97288 79.475 4 63.5536C14.4117 59.5369 34.8078 56.2865 43.7045 55.1634L43.3081 54.1064C31.2052 52.9437 18.1817 54.5909 13.1829 55.5598C11.9937 41.1579 13.3811 34.023 20.3178 24.2455C15.9311 33.8644 16.8604 45.6943 17.8734 50.4068C23.7399 49.9312 37.2742 50.9574 43.3081 51.5299L43.7045 50.6711C36.6752 45.7031 29.9411 43.404 27.4527 42.8755C25.0744 20.2816 28.8401 15.3929 37.1641 0.066064C30.0821 16.2914 31.3064 33.2522 32.8039 39.7045L45.4882 48.6231L46.1488 47.3018L43.1099 43.6683C44.2197 41.2371 47.2719 39.3521 48.6592 38.7135C45.2768 43.0473 47.4701 44.9235 48.9896 45.3199H54.2086C57.7496 43.9458 55.9043 40.3431 54.5389 38.7135C57.3929 39.8234 59.5598 42.4791 60.2865 43.6683L56.2566 47.8303L57.2476 49.2177L70.3943 39.6384C73.7768 22.7789 68.5445 6.67246 65.3074 0C78.8505 18.9604 76.6704 33.6266 75.4152 42.8755C71.0285 43.6683 62.1803 48.491 58.3046 50.8032L59.1634 51.9263C64.3957 50.4993 78.6083 50.2307 85.0605 50.2747C87.5974 41.0257 84.3118 29.0682 82.5501 24.2455C90.5306 32.9131 90.8961 48.6011 89.8832 55.3616C81.0042 53.5118 65.5716 53.7541 58.9652 54.1064L58.4367 55.1634C76.2079 57.0132 89.3547 60.4485 99 63.5536C94.904 88.3936 91.6669 98.8317 86.7782 107.882C76.1022 124.531 68.8088 131.335 66.7608 133.449C79.3394 118.281 83.7797 102.465 85.3908 96.3213C88.509 84.4298 89.685 71.9437 89.8832 67.1871C80.7399 63.1704 64.8449 58.4226 58.0403 56.5508L57.3797 57.9381C66.5758 61.4263 79.0046 68.156 84.0695 71.0848C83.1182 83.7163 81.1627 93.1722 80.3039 96.3213C77.8199 107.42 71.8697 117.286 69.2051 120.831C73.856 111.846 76.1198 100.219 76.6704 95.5285C77.8859 86.121 78.2779 76.37 78.322 72.6704C72.4026 68.2837 61.5417 61.7258 56.8512 58.9951Z" fill="#EA2326"/>
</g>
<defs>
<filter id="filter0_d" x="105" y="7" width="176" height="129" filterUnits="userSpaceOnUse" color-interpolation-filters="sRGB">
<feFlood flood-opacity="0" result="BackgroundImageFix"/>
<feColorMatrix in="SourceAlpha" type="matrix" values="0 0 0 0 0 0 0 0 0 0 0 0 0 0 0 0 0 0 127 0"/>
<feOffset dy="4"/>
<feGaussianBlur stdDeviation="2"/>
<feColorMatrix type="matrix" values="0 0 0 0 0 0 0 0 0 0 0 0 0 0 0 0 0 0 0.3 0"/>
<feBlend mode="normal" in2="BackgroundImageFix" result="effect1_dropShadow"/>
<feBlend mode="normal" in="SourceGraphic" in2="effect1_dropShadow" result="shape"/>
</filter>
<filter id="filter1_d" x="0" y="0" width="103" height="141.449" filterUnits="userSpaceOnUse" color-interpolation-filters="sRGB">
<feFlood flood-opacity="0" result="BackgroundImageFix"/>
<feColorMatrix in="SourceAlpha" type="matrix" values="0 0 0 0 0 0 0 0 0 0 0 0 0 0 0 0 0 0 127 0"/>
<feOffset dy="4"/>
<feGaussianBlur stdDeviation="2"/>
<feColorMatrix type="matrix" values="0 0 0 0 0 0 0 0 0 0 0 0 0 0 0 0 0 0 0.25 0"/>
<feBlend mode="normal" in2="BackgroundImageFix" result="effect1_dropShadow"/>
<feBlend mode="normal" in="SourceGraphic" in2="effect1_dropShadow" result="shape"/>
</filter>
</defs>
</svg>
