<svg width="719" height="1010" viewBox="0 0 719 1010" fill="none" xmlns="http://www.w3.org/2000/svg">
<path d="M400 446.5L396.5 453C424.5 468.6 464.833 502.833 481.5 518C483.5 568.8 479.667 613.5 477.5 629.5C449.9 697.5 387.333 737.167 359.5 748.5C305.1 728.1 257.167 660.667 240 629.5C236.4 562.7 238.5 526.667 240 517C263.2 493.4 305 464.5 323 453L319 446.5C283.4 465.7 195.5 523.5 156 550C162.8 780.8 195 852 223.5 914.5C128 763 123 644.5 115 537C145 513 261.5 461.333 315.5 438.5L311 428C245 441.6 122.5 487.333 69.5 508.5C79.1 758.5 162.5 898.5 243 1010C178 933.5 129.5 885 71 772.5C38.2944 698.083 22.5 601.5 0 481C78.8 450.6 233.167 426 300.5 417.5L297.5 409.5C205.9 400.7 107.333 413.167 69.5 420.5C60.5 311.5 71 257.5 123.5 183.5C90.2999 256.3 97.3333 345.833 105 381.5C149.4 377.9 251.833 385.667 297.5 390L300.5 383.5C247.3 345.9 196.333 328.5 177.5 324.5C159.5 153.5 188 116.5 251 0.5C197.4 123.3 206.667 251.667 218 300.5L314 368L319 358L296 330.5C304.4 312.1 327.5 297.833 338 293C312.4 325.8 329 340 340.5 343H380C406.8 332.6 392.833 305.333 382.5 293C404.1 301.4 420.5 321.5 426 330.5L395.5 362L403 372.5L502.5 300C528.1 172.4 488.5 50.5 464 0C566.5 143.5 550 254.5 540.5 324.5C507.3 330.5 440.333 367 411 384.5L417.5 393C457.1 382.2 564.667 380.167 613.5 380.5C632.7 310.5 607.833 220 594.5 183.5C654.9 249.1 657.667 367.833 650 419C582.8 405 466 406.833 416 409.5L412 417.5C546.5 431.5 646 457.5 719 481C688 669 663.5 748 626.5 816.5C545.7 942.5 490.5 994 475 1010C570.2 895.2 603.807 775.5 616 729C639.6 639 648.5 544.5 650 508.5C580.8 478.1 460.5 442.167 409 428L404 438.5C473.6 464.9 567.667 515.833 606 538C598.8 633.6 584 705.167 577.5 729C558.7 813 513.667 887.667 493.5 914.5C528.7 846.5 545.833 758.5 550 723C559.2 651.8 562.167 578 562.5 550C517.7 516.8 435.5 467.167 400 446.5Z" fill="#EA2326"/>
</svg>
