<svg width="35" height="35" viewBox="0 0 35 35" fill="none" xmlns="http://www.w3.org/2000/svg">
<path fill-rule="evenodd" clip-rule="evenodd" d="M9.83301 0C4.40239 0 0 4.40239 0 9.83301V25.167C0 30.5976 4.40239 35 9.83301 35H25.167C30.5976 35 35 30.5976 35 25.167V9.83301C35 4.40239 30.5976 0 25.167 0H9.83301ZM9.69569 3.23195C6.12591 3.23195 3.23203 6.12582 3.23203 9.6956V25.3047C3.23203 28.8744 6.12591 31.7683 9.69569 31.7683H25.2362C28.8059 31.7683 31.6998 28.8744 31.6998 25.3047V9.6956C31.6998 6.12582 28.8059 3.23195 25.2362 3.23195H9.69569Z" fill="white"/>
<path fill-rule="evenodd" clip-rule="evenodd" d="M17.4998 26.5419C22.4558 26.5419 26.4733 22.5244 26.4733 17.5684C26.4733 12.6125 22.4558 8.59497 17.4998 8.59497C12.5439 8.59497 8.52637 12.6125 8.52637 17.5684C8.52637 22.5244 12.5439 26.5419 17.4998 26.5419ZM17.4996 23.3792C20.7466 23.3792 23.3788 20.747 23.3788 17.5C23.3788 14.253 20.7466 11.6208 17.4996 11.6208C14.2526 11.6208 11.6204 14.253 11.6204 17.5C11.6204 20.747 14.2526 23.3792 17.4996 23.3792Z" fill="white"/>
<circle cx="26.9205" cy="8.14852" r="2.09725" fill="white"/>
</svg>
