<svg width="44" height="35" viewBox="0 0 44 35" fill="none" xmlns="http://www.w3.org/2000/svg">
<path d="M21.6542 10.8263C12.1454 10.4556 5.27308 4.63381 3.02554 1.76927C-0.259332 7.16134 3.44335 11.7671 5.7053 13.3959C4.80629 13.497 2.65095 12.8202 1.68566 12.4692C1.99686 18.4004 6.65619 20.6977 8.94695 21.1049C7.70216 21.4756 5.80616 21.4559 5.01375 21.3998C6.60432 26.1852 11.2377 27.3816 13.3556 27.3816C9.37917 30.9538 2.79502 31.3976 0 31.1729C8.68762 36.228 22.0864 37.239 31.6385 28.2241C37.8739 21.3798 39.3039 17.016 39.6778 8.67786C42.1328 6.95914 43.5822 4.98486 44 4.21255C42.9281 4.81916 40.2685 5.30782 39.0727 5.47632C41.2857 4.33051 42.5304 1.82544 42.8762 0.716134C41.5969 1.62605 38.5396 2.49945 37.1709 2.82241C34.9643 0.772037 33.4415 0.23216 30.3851 0C23.945 0.37913 20.7466 5.09719 21.6542 10.8263Z" fill="white"/>
</svg>
